<mxfile host="Electron" agent="Mozilla/5.0 (Windows NT 10.0; Win64; x64) AppleWebKit/537.36 (KHTML, like Gecko) draw.io/27.0.5 Chrome/134.0.6998.205 Electron/35.3.0 Safari/537.36" version="27.0.5">
  <diagram name="Page-1" id="SpDFF4etDDi6ipWytM7-">
    <mxGraphModel dx="1425" dy="2169" grid="1" gridSize="10" guides="1" tooltips="1" connect="1" arrows="1" fold="1" page="1" pageScale="1" pageWidth="2339" pageHeight="3300" math="0" shadow="0">
      <root>
        <mxCell id="0" />
        <mxCell id="1" parent="0" />
        <mxCell id="s5quHR6hdcYwXIpgsCae-1" value="" style="rounded=0;whiteSpace=wrap;html=1;dashed=1;strokeColor=#808080;fillColor=none;" vertex="1" parent="1">
          <mxGeometry x="445" y="550" width="280" height="801" as="geometry" />
        </mxCell>
        <mxCell id="s5quHR6hdcYwXIpgsCae-2" value="&lt;font style=&quot;font-size: 24px;&quot;&gt;SOURCES&lt;/font&gt;" style="rounded=0;whiteSpace=wrap;html=1;fillColor=default;strokeColor=none;align=center;" vertex="1" parent="1">
          <mxGeometry x="525" y="520" width="120" height="60" as="geometry" />
        </mxCell>
        <mxCell id="s5quHR6hdcYwXIpgsCae-80" style="edgeStyle=orthogonalEdgeStyle;rounded=0;orthogonalLoop=1;jettySize=auto;html=1;entryX=0;entryY=0.5;entryDx=0;entryDy=0;" edge="1" parent="1" source="s5quHR6hdcYwXIpgsCae-13" target="s5quHR6hdcYwXIpgsCae-48">
          <mxGeometry relative="1" as="geometry" />
        </mxCell>
        <mxCell id="s5quHR6hdcYwXIpgsCae-13" value="" style="image;aspect=fixed;html=1;points=[];align=center;fontSize=12;image=img/lib/azure2/general/Folder_Website.svg;" vertex="1" parent="1">
          <mxGeometry x="551" y="780" width="68" height="56.00000000000001" as="geometry" />
        </mxCell>
        <mxCell id="s5quHR6hdcYwXIpgsCae-14" value="" style="image;aspect=fixed;html=1;points=[];align=center;fontSize=12;image=img/lib/azure2/general/File.svg;" vertex="1" parent="1">
          <mxGeometry x="604.4200000000001" y="810" width="30.58" height="37.68" as="geometry" />
        </mxCell>
        <mxCell id="s5quHR6hdcYwXIpgsCae-83" style="edgeStyle=orthogonalEdgeStyle;rounded=0;orthogonalLoop=1;jettySize=auto;html=1;entryX=0;entryY=0.5;entryDx=0;entryDy=0;" edge="1" parent="1" source="s5quHR6hdcYwXIpgsCae-15" target="s5quHR6hdcYwXIpgsCae-56">
          <mxGeometry relative="1" as="geometry" />
        </mxCell>
        <mxCell id="s5quHR6hdcYwXIpgsCae-84" style="edgeStyle=orthogonalEdgeStyle;rounded=0;orthogonalLoop=1;jettySize=auto;html=1;entryX=0;entryY=0.5;entryDx=0;entryDy=0;" edge="1" parent="1" source="s5quHR6hdcYwXIpgsCae-15" target="s5quHR6hdcYwXIpgsCae-57">
          <mxGeometry relative="1" as="geometry" />
        </mxCell>
        <mxCell id="s5quHR6hdcYwXIpgsCae-85" style="edgeStyle=orthogonalEdgeStyle;rounded=0;orthogonalLoop=1;jettySize=auto;html=1;entryX=0;entryY=0.5;entryDx=0;entryDy=0;" edge="1" parent="1" source="s5quHR6hdcYwXIpgsCae-15" target="s5quHR6hdcYwXIpgsCae-58">
          <mxGeometry relative="1" as="geometry" />
        </mxCell>
        <mxCell id="s5quHR6hdcYwXIpgsCae-15" value="" style="image;aspect=fixed;html=1;points=[];align=center;fontSize=12;image=img/lib/azure2/general/Folder_Website.svg;" vertex="1" parent="1">
          <mxGeometry x="551" y="1113" width="68" height="56.00000000000001" as="geometry" />
        </mxCell>
        <mxCell id="s5quHR6hdcYwXIpgsCae-16" value="" style="image;aspect=fixed;html=1;points=[];align=center;fontSize=12;image=img/lib/azure2/general/File.svg;" vertex="1" parent="1">
          <mxGeometry x="604.4200000000001" y="1151" width="30.58" height="37.68" as="geometry" />
        </mxCell>
        <mxCell id="s5quHR6hdcYwXIpgsCae-17" value="&lt;b&gt;CRM&lt;/b&gt;" style="text;html=1;align=center;verticalAlign=middle;whiteSpace=wrap;rounded=0;fontSize=17;" vertex="1" parent="1">
          <mxGeometry x="551" y="836" width="60" height="30" as="geometry" />
        </mxCell>
        <mxCell id="s5quHR6hdcYwXIpgsCae-18" value="&lt;b&gt;ERP&lt;/b&gt;" style="text;html=1;align=center;verticalAlign=middle;whiteSpace=wrap;rounded=0;fontSize=17;" vertex="1" parent="1">
          <mxGeometry x="551" y="1169" width="60" height="30" as="geometry" />
        </mxCell>
        <mxCell id="s5quHR6hdcYwXIpgsCae-46" value="" style="group" vertex="1" connectable="0" parent="1">
          <mxGeometry x="798" y="540" width="290" height="800" as="geometry" />
        </mxCell>
        <mxCell id="s5quHR6hdcYwXIpgsCae-5" value="&lt;font style=&quot;font-size: 20px;&quot;&gt;BRONZE&lt;/font&gt;" style="rounded=1;whiteSpace=wrap;html=1;fillColor=#a0522d;fontColor=#ffffff;strokeColor=#6D1F00;glass=0;shadow=1;fillStyle=auto;gradientColor=none;opacity=80;" vertex="1" parent="s5quHR6hdcYwXIpgsCae-46">
          <mxGeometry width="280" height="52.72" as="geometry" />
        </mxCell>
        <mxCell id="s5quHR6hdcYwXIpgsCae-6" value="" style="rounded=0;whiteSpace=wrap;html=1;fillColor=none;fontColor=#ffffff;strokeColor=#6D1F00;" vertex="1" parent="s5quHR6hdcYwXIpgsCae-46">
          <mxGeometry y="61.94" width="280" height="738.06" as="geometry" />
        </mxCell>
        <mxCell id="s5quHR6hdcYwXIpgsCae-45" value="&lt;font style=&quot;font-size: 20px;&quot;&gt;crm_sales_details&lt;/font&gt;" style="rounded=1;whiteSpace=wrap;html=1;fillColor=#a0522d;fontColor=#ffffff;strokeColor=#6D1F00;glass=0;shadow=1;fillStyle=auto;gradientColor=none;opacity=50;" vertex="1" parent="s5quHR6hdcYwXIpgsCae-46">
          <mxGeometry x="9.499999999999998" y="164.61281713344317" width="261" height="52.71828665568368" as="geometry" />
        </mxCell>
        <mxCell id="s5quHR6hdcYwXIpgsCae-47" value="&lt;span style=&quot;font-size: 20px;&quot;&gt;crm_cust_info&lt;/span&gt;" style="rounded=1;whiteSpace=wrap;html=1;fillColor=#a0522d;fontColor=#ffffff;strokeColor=#6D1F00;glass=0;shadow=1;fillStyle=auto;gradientColor=none;opacity=50;" vertex="1" parent="s5quHR6hdcYwXIpgsCae-46">
          <mxGeometry x="9.5" y="234.61281713344317" width="261" height="52.71828665568368" as="geometry" />
        </mxCell>
        <mxCell id="s5quHR6hdcYwXIpgsCae-48" value="&lt;span style=&quot;font-size: 20px;&quot;&gt;crm_prd_info&lt;/span&gt;" style="rounded=1;whiteSpace=wrap;html=1;fillColor=#a0522d;fontColor=#ffffff;strokeColor=#6D1F00;glass=0;shadow=1;fillStyle=auto;gradientColor=none;opacity=50;" vertex="1" parent="s5quHR6hdcYwXIpgsCae-46">
          <mxGeometry x="9.5" y="304.6128171334432" width="261" height="52.71828665568368" as="geometry" />
        </mxCell>
        <mxCell id="s5quHR6hdcYwXIpgsCae-56" value="&lt;span style=&quot;font-size: 20px;&quot;&gt;erp_cust_az12&lt;/span&gt;" style="rounded=1;whiteSpace=wrap;html=1;fillColor=#a0522d;fontColor=#ffffff;strokeColor=#6D1F00;glass=0;shadow=1;fillStyle=auto;gradientColor=none;opacity=50;" vertex="1" parent="s5quHR6hdcYwXIpgsCae-46">
          <mxGeometry x="9.5" y="504.6128171334432" width="261" height="52.71828665568368" as="geometry" />
        </mxCell>
        <mxCell id="s5quHR6hdcYwXIpgsCae-57" value="&lt;span style=&quot;font-size: 20px;&quot;&gt;erp_loc_a101&lt;/span&gt;" style="rounded=1;whiteSpace=wrap;html=1;fillColor=#a0522d;fontColor=#ffffff;strokeColor=#6D1F00;glass=0;shadow=1;fillStyle=auto;gradientColor=none;opacity=50;" vertex="1" parent="s5quHR6hdcYwXIpgsCae-46">
          <mxGeometry x="9.5" y="574.6128171334432" width="261" height="52.71828665568368" as="geometry" />
        </mxCell>
        <mxCell id="s5quHR6hdcYwXIpgsCae-58" value="&lt;span style=&quot;font-size: 20px;&quot;&gt;erp_px_cat_g1v2&lt;/span&gt;" style="rounded=1;whiteSpace=wrap;html=1;fillColor=#a0522d;fontColor=#ffffff;strokeColor=#6D1F00;glass=0;shadow=1;fillStyle=auto;gradientColor=none;opacity=50;" vertex="1" parent="s5quHR6hdcYwXIpgsCae-46">
          <mxGeometry x="9.5" y="644.6128171334432" width="261" height="52.71828665568368" as="geometry" />
        </mxCell>
        <mxCell id="s5quHR6hdcYwXIpgsCae-59" value="" style="group" vertex="1" connectable="0" parent="1">
          <mxGeometry x="1590" y="540" width="290" height="800" as="geometry" />
        </mxCell>
        <mxCell id="s5quHR6hdcYwXIpgsCae-60" value="&lt;font style=&quot;font-size: 20px;&quot;&gt;GOLD&lt;/font&gt;" style="rounded=1;whiteSpace=wrap;html=1;fillColor=#ffcd28;strokeColor=#d79b00;glass=0;shadow=1;fillStyle=auto;opacity=80;gradientColor=#ffa500;" vertex="1" parent="s5quHR6hdcYwXIpgsCae-59">
          <mxGeometry x="10" width="280" height="52.72" as="geometry" />
        </mxCell>
        <mxCell id="s5quHR6hdcYwXIpgsCae-61" value="" style="rounded=0;whiteSpace=wrap;html=1;fillColor=none;fontColor=#ffffff;strokeColor=light-dark(#f7c845, #fcb99e);" vertex="1" parent="s5quHR6hdcYwXIpgsCae-59">
          <mxGeometry x="10" y="61.94" width="280" height="738.06" as="geometry" />
        </mxCell>
        <mxCell id="s5quHR6hdcYwXIpgsCae-62" value="&lt;font style=&quot;font-size: 20px;&quot;&gt;fact_sales&lt;/font&gt;" style="rounded=1;whiteSpace=wrap;html=1;fillColor=#ffcd28;strokeColor=#d79b00;glass=0;shadow=1;fillStyle=auto;gradientColor=#ffa500;opacity=50;" vertex="1" parent="s5quHR6hdcYwXIpgsCae-59">
          <mxGeometry x="18.5" y="170.00281713344316" width="261" height="52.71828665568368" as="geometry" />
        </mxCell>
        <mxCell id="s5quHR6hdcYwXIpgsCae-64" value="&lt;font style=&quot;font-size: 20px;&quot;&gt;dim_customers&lt;/font&gt;" style="rounded=1;whiteSpace=wrap;html=1;fillColor=#ffcd28;strokeColor=#d79b00;glass=0;shadow=1;fillStyle=auto;gradientColor=#ffa500;opacity=50;" vertex="1" parent="s5quHR6hdcYwXIpgsCae-59">
          <mxGeometry x="18.5" y="378.00281713344316" width="261" height="52.71828665568368" as="geometry" />
        </mxCell>
        <mxCell id="s5quHR6hdcYwXIpgsCae-66" value="&lt;font style=&quot;font-size: 20px;&quot;&gt;dim_products&lt;/font&gt;" style="rounded=1;whiteSpace=wrap;html=1;fillColor=#ffcd28;strokeColor=#d79b00;glass=0;shadow=1;fillStyle=auto;gradientColor=#ffa500;opacity=50;" vertex="1" parent="s5quHR6hdcYwXIpgsCae-59">
          <mxGeometry x="18.5" y="580.0028171334432" width="261" height="52.71828665568368" as="geometry" />
        </mxCell>
        <mxCell id="s5quHR6hdcYwXIpgsCae-68" value="" style="group" vertex="1" connectable="0" parent="1">
          <mxGeometry x="1200" y="540" width="290" height="800" as="geometry" />
        </mxCell>
        <mxCell id="s5quHR6hdcYwXIpgsCae-69" value="&lt;font style=&quot;font-size: 20px;&quot;&gt;SILVER&lt;/font&gt;" style="rounded=1;whiteSpace=wrap;html=1;fillColor=#f5f5f5;strokeColor=#666666;glass=0;shadow=1;fillStyle=auto;gradientColor=#b3b3b3;opacity=80;" vertex="1" parent="s5quHR6hdcYwXIpgsCae-68">
          <mxGeometry width="280" height="52.72" as="geometry" />
        </mxCell>
        <mxCell id="s5quHR6hdcYwXIpgsCae-70" value="" style="rounded=0;whiteSpace=wrap;html=1;fillColor=none;fontColor=#ffffff;strokeColor=#B3B3B3;" vertex="1" parent="s5quHR6hdcYwXIpgsCae-68">
          <mxGeometry y="61.94" width="280" height="738.06" as="geometry" />
        </mxCell>
        <mxCell id="s5quHR6hdcYwXIpgsCae-71" value="&lt;span style=&quot;font-size: 20px;&quot;&gt;&lt;font style=&quot;color: rgb(0, 0, 0);&quot;&gt;crm_sales_details&lt;/font&gt;&lt;/span&gt;" style="rounded=1;whiteSpace=wrap;html=1;fillColor=#f5f5f5;strokeColor=#666666;glass=0;shadow=1;fillStyle=auto;gradientColor=#b3b3b3;opacity=50;" vertex="1" parent="s5quHR6hdcYwXIpgsCae-68">
          <mxGeometry x="9.499999999999998" y="170.00281713344316" width="261" height="52.71828665568368" as="geometry" />
        </mxCell>
        <mxCell id="s5quHR6hdcYwXIpgsCae-72" value="&lt;span style=&quot;font-size: 20px;&quot;&gt;&lt;font style=&quot;color: rgb(0, 0, 0);&quot;&gt;crm_sales_details&lt;/font&gt;&lt;/span&gt;" style="rounded=1;whiteSpace=wrap;html=1;fillColor=#f5f5f5;strokeColor=#666666;glass=0;shadow=1;fillStyle=auto;gradientColor=#b3b3b3;opacity=50;" vertex="1" parent="s5quHR6hdcYwXIpgsCae-68">
          <mxGeometry x="9.5" y="240.00281713344316" width="261" height="52.71828665568368" as="geometry" />
        </mxCell>
        <mxCell id="s5quHR6hdcYwXIpgsCae-73" value="&lt;font style=&quot;font-size: 20px;&quot;&gt;crm_prd_info&lt;/font&gt;" style="rounded=1;whiteSpace=wrap;html=1;fillColor=#f5f5f5;strokeColor=#666666;glass=0;shadow=1;fillStyle=auto;gradientColor=#b3b3b3;opacity=50;" vertex="1" parent="s5quHR6hdcYwXIpgsCae-68">
          <mxGeometry x="9.5" y="310.00281713344316" width="261" height="52.71828665568368" as="geometry" />
        </mxCell>
        <mxCell id="s5quHR6hdcYwXIpgsCae-74" value="&lt;font style=&quot;font-size: 20px;&quot;&gt;erp_cust_az12&lt;/font&gt;" style="rounded=1;whiteSpace=wrap;html=1;fillColor=#f5f5f5;strokeColor=#666666;glass=0;shadow=1;fillStyle=auto;gradientColor=#b3b3b3;opacity=50;" vertex="1" parent="s5quHR6hdcYwXIpgsCae-68">
          <mxGeometry x="9.5" y="510.00281713344316" width="261" height="52.71828665568368" as="geometry" />
        </mxCell>
        <mxCell id="s5quHR6hdcYwXIpgsCae-75" value="&lt;font style=&quot;font-size: 20px;&quot;&gt;erp_loc_a101&lt;/font&gt;" style="rounded=1;whiteSpace=wrap;html=1;fillColor=#f5f5f5;strokeColor=#666666;glass=0;shadow=1;fillStyle=auto;gradientColor=#b3b3b3;opacity=50;" vertex="1" parent="s5quHR6hdcYwXIpgsCae-68">
          <mxGeometry x="9.5" y="580.0028171334432" width="261" height="52.71828665568368" as="geometry" />
        </mxCell>
        <mxCell id="s5quHR6hdcYwXIpgsCae-76" value="&lt;font style=&quot;font-size: 20px;&quot;&gt;erp_px_cat_g1v2&lt;/font&gt;" style="rounded=1;whiteSpace=wrap;html=1;fillColor=#f5f5f5;strokeColor=#666666;glass=0;shadow=1;fillStyle=auto;gradientColor=#b3b3b3;opacity=50;" vertex="1" parent="s5quHR6hdcYwXIpgsCae-68">
          <mxGeometry x="9.5" y="650.0028171334432" width="261" height="52.71828665568368" as="geometry" />
        </mxCell>
        <mxCell id="s5quHR6hdcYwXIpgsCae-78" style="edgeStyle=orthogonalEdgeStyle;rounded=0;orthogonalLoop=1;jettySize=auto;html=1;entryX=0.001;entryY=0.588;entryDx=0;entryDy=0;entryPerimeter=0;" edge="1" parent="1" source="s5quHR6hdcYwXIpgsCae-13" target="s5quHR6hdcYwXIpgsCae-45">
          <mxGeometry relative="1" as="geometry" />
        </mxCell>
        <mxCell id="s5quHR6hdcYwXIpgsCae-82" style="edgeStyle=orthogonalEdgeStyle;rounded=0;orthogonalLoop=1;jettySize=auto;html=1;entryX=0.009;entryY=0.624;entryDx=0;entryDy=0;entryPerimeter=0;" edge="1" parent="1" source="s5quHR6hdcYwXIpgsCae-13" target="s5quHR6hdcYwXIpgsCae-47">
          <mxGeometry relative="1" as="geometry" />
        </mxCell>
      </root>
    </mxGraphModel>
  </diagram>
</mxfile>
